<?xml version="1.0" encoding="utf-8"?>
<!-- Generator: Adobe Illustrator 15.0.2, SVG Export Plug-In . SVG Version: 6.00 Build 0)  -->
<!DOCTYPE svg PUBLIC "-//W3C//DTD SVG 1.1//EN" "http://www.w3.org/Graphics/SVG/1.1/DTD/svg11.dtd">
<svg version="1.1" id="圖層_1" xmlns="http://www.w3.org/2000/svg" xmlns:xlink="http://www.w3.org/1999/xlink" x="0px" y="0px"
	 width="200px" height="33.43px" viewBox="0 0 200 33.43" enable-background="new 0 0 200 33.43" xml:space="preserve">
<g>
	<polygon fill="#115A94" points="23.925,12.685 7.496,12.685 7.496,17.024 13.201,17.024 13.201,32.773 18.221,32.773 
		18.221,17.024 23.925,17.024 	"/>
	<rect x="63.907" y="12.685" fill="#115A94" width="4.876" height="20.04"/>
	<g>
		<path fill="#040000" d="M85.761,5.212v1.929c0,0.417,0.046,0.676,0.137,0.777c0.124,0.143,0.311,0.215,0.562,0.215h0.254v0.181
			h-2.838V8.133h0.249c0.28,0,0.48-0.091,0.601-0.273c0.065-0.101,0.098-0.34,0.098-0.718V2.862c0-0.417-0.044-0.675-0.132-0.776
			c-0.127-0.144-0.316-0.215-0.567-0.215h-0.249V1.69h2.428c0.592,0,1.06,0.062,1.402,0.184c0.342,0.122,0.63,0.328,0.864,0.618
			c0.234,0.29,0.352,0.633,0.352,1.031c0,0.541-0.179,0.98-0.535,1.319c-0.356,0.338-0.86,0.508-1.512,0.508
			c-0.16,0-0.332-0.011-0.518-0.034S85.973,5.257,85.761,5.212z M85.761,4.934c0.173,0.032,0.326,0.057,0.459,0.073
			c0.133,0.016,0.247,0.024,0.342,0.024c0.338,0,0.631-0.131,0.877-0.393c0.246-0.262,0.369-0.602,0.369-1.019
			c0-0.287-0.059-0.553-0.176-0.799c-0.117-0.246-0.284-0.43-0.499-0.552s-0.459-0.183-0.732-0.183c-0.166,0-0.379,0.031-0.64,0.093
			V4.934z"/>
		<path fill="#040000" d="M90.895,3.708v1.006c0.375-0.671,0.759-1.006,1.153-1.006c0.179,0,0.327,0.055,0.444,0.164
			s0.176,0.235,0.176,0.378c0,0.127-0.042,0.234-0.127,0.322c-0.084,0.088-0.186,0.132-0.303,0.132
			c-0.114,0-0.242-0.056-0.383-0.169c-0.142-0.112-0.247-0.168-0.315-0.168c-0.059,0-0.123,0.033-0.191,0.098
			c-0.146,0.134-0.298,0.354-0.454,0.66v2.144c0,0.248,0.031,0.435,0.093,0.562c0.042,0.088,0.117,0.161,0.225,0.22
			s0.262,0.088,0.464,0.088v0.176h-2.291V8.138c0.228,0,0.397-0.036,0.508-0.107c0.082-0.052,0.139-0.135,0.171-0.249
			c0.016-0.056,0.024-0.213,0.024-0.474V5.573c0-0.521-0.011-0.831-0.032-0.93c-0.021-0.1-0.061-0.172-0.118-0.218
			c-0.057-0.045-0.127-0.068-0.212-0.068c-0.101,0-0.215,0.024-0.342,0.073l-0.049-0.176l1.353-0.547H90.895z"/>
		<path fill="#040000" d="M93.669,5.524c-0.003,0.665,0.158,1.186,0.483,1.563c0.326,0.378,0.708,0.567,1.148,0.567
			c0.293,0,0.548-0.081,0.764-0.242c0.217-0.161,0.398-0.437,0.545-0.828l0.151,0.098c-0.068,0.446-0.267,0.852-0.596,1.219
			c-0.329,0.366-0.741,0.549-1.235,0.549c-0.538,0-0.998-0.209-1.38-0.627c-0.383-0.418-0.574-0.981-0.574-1.688
			c0-0.766,0.196-1.362,0.589-1.791c0.392-0.428,0.885-0.642,1.478-0.642c0.501,0,0.913,0.165,1.235,0.496
			c0.323,0.331,0.484,0.772,0.484,1.326H93.669z M93.669,5.241h2.071c-0.016-0.287-0.05-0.488-0.103-0.606
			c-0.082-0.182-0.203-0.325-0.364-0.43c-0.161-0.104-0.33-0.156-0.506-0.156c-0.27,0-0.512,0.105-0.725,0.315
			S93.705,4.867,93.669,5.241z"/>
		<path fill="#040000" d="M101.157,6.614c-0.121,0.589-0.356,1.043-0.708,1.36c-0.352,0.317-0.741,0.476-1.167,0.476
			c-0.508,0-0.951-0.213-1.329-0.64c-0.378-0.427-0.567-1.003-0.567-1.729c0-0.703,0.209-1.274,0.628-1.714
			c0.418-0.439,0.92-0.659,1.507-0.659c0.439,0,0.801,0.116,1.084,0.349c0.284,0.233,0.425,0.475,0.425,0.726
			c0,0.124-0.04,0.224-0.12,0.3c-0.08,0.077-0.191,0.115-0.335,0.115c-0.192,0-0.337-0.062-0.435-0.186
			c-0.055-0.068-0.092-0.199-0.11-0.391c-0.018-0.192-0.084-0.338-0.198-0.439c-0.114-0.098-0.272-0.146-0.474-0.146
			c-0.326,0-0.588,0.121-0.787,0.361c-0.264,0.319-0.396,0.741-0.396,1.265c0,0.534,0.131,1.005,0.393,1.414
			s0.616,0.613,1.063,0.613c0.319,0,0.605-0.109,0.859-0.328c0.179-0.149,0.354-0.421,0.523-0.815L101.157,6.614z"/>
		<path fill="#040000" d="M103.34,3.708v3.595c0,0.28,0.021,0.467,0.061,0.56c0.041,0.093,0.102,0.162,0.182,0.208
			s0.225,0.068,0.438,0.068v0.176h-2.174V8.138c0.218,0,0.364-0.021,0.439-0.063c0.074-0.042,0.135-0.112,0.178-0.21
			c0.045-0.098,0.066-0.285,0.066-0.562V5.578c0-0.485-0.015-0.799-0.044-0.943c-0.022-0.104-0.059-0.176-0.107-0.217
			c-0.049-0.041-0.116-0.061-0.2-0.061c-0.092,0-0.202,0.024-0.332,0.073l-0.068-0.176l1.348-0.547H103.34z M102.935,1.368
			c0.137,0,0.253,0.048,0.349,0.144c0.097,0.096,0.145,0.213,0.145,0.35s-0.048,0.254-0.145,0.352
			c-0.096,0.098-0.212,0.146-0.349,0.146s-0.254-0.049-0.352-0.146s-0.146-0.215-0.146-0.352s0.048-0.253,0.144-0.35
			C102.676,1.416,102.795,1.368,102.935,1.368z"/>
		<path fill="#040000" d="M107.467,3.708v1.524h-0.16c-0.124-0.479-0.283-0.804-0.477-0.977c-0.193-0.172-0.44-0.259-0.74-0.259
			c-0.229,0-0.412,0.061-0.552,0.181c-0.14,0.121-0.21,0.254-0.21,0.4c0,0.183,0.052,0.339,0.156,0.469
			c0.101,0.133,0.307,0.275,0.615,0.425l0.713,0.347c0.661,0.323,0.992,0.748,0.992,1.275c0,0.407-0.154,0.735-0.462,0.984
			s-0.651,0.374-1.033,0.374c-0.273,0-0.586-0.049-0.938-0.146c-0.107-0.033-0.195-0.049-0.264-0.049
			c-0.075,0-0.134,0.042-0.177,0.127h-0.16V6.785h0.16c0.092,0.456,0.266,0.799,0.523,1.031c0.258,0.231,0.545,0.347,0.864,0.347
			c0.226,0,0.408-0.066,0.55-0.198s0.213-0.291,0.213-0.477c0-0.225-0.08-0.413-0.237-0.566c-0.158-0.153-0.474-0.347-0.945-0.581
			c-0.472-0.235-0.781-0.446-0.929-0.635c-0.146-0.186-0.219-0.42-0.219-0.703c0-0.368,0.126-0.676,0.379-0.923
			c0.252-0.248,0.578-0.371,0.979-0.371c0.176,0,0.389,0.038,0.641,0.112c0.166,0.049,0.275,0.073,0.332,0.073
			c0.052,0,0.092-0.011,0.121-0.034s0.064-0.073,0.104-0.151H107.467z"/>
		<path fill="#040000" d="M110.012,3.708v3.595c0,0.28,0.021,0.467,0.062,0.56c0.041,0.093,0.101,0.162,0.181,0.208
			s0.226,0.068,0.438,0.068v0.176h-2.174V8.138c0.219,0,0.365-0.021,0.439-0.063c0.075-0.042,0.135-0.112,0.179-0.21
			s0.065-0.285,0.065-0.562V5.578c0-0.485-0.014-0.799-0.043-0.943c-0.023-0.104-0.059-0.176-0.107-0.217
			c-0.049-0.041-0.116-0.061-0.201-0.061c-0.091,0-0.201,0.024-0.332,0.073l-0.068-0.176l1.348-0.547H110.012z M109.607,1.368
			c0.137,0,0.252,0.048,0.349,0.144c0.097,0.096,0.144,0.213,0.144,0.35s-0.047,0.254-0.144,0.352s-0.212,0.146-0.349,0.146
			s-0.254-0.049-0.352-0.146s-0.146-0.215-0.146-0.352s0.047-0.253,0.144-0.35C109.349,1.416,109.467,1.368,109.607,1.368z"/>
		<path fill="#040000" d="M113.436,3.708c0.678,0,1.222,0.257,1.632,0.771c0.349,0.44,0.522,0.944,0.522,1.514
			c0,0.401-0.096,0.806-0.288,1.216c-0.192,0.411-0.456,0.72-0.794,0.928c-0.337,0.208-0.712,0.313-1.125,0.313
			c-0.675,0-1.211-0.269-1.607-0.806c-0.336-0.453-0.504-0.961-0.504-1.524c0-0.411,0.103-0.818,0.306-1.224
			c0.204-0.406,0.472-0.705,0.804-0.899S113.064,3.708,113.436,3.708z M113.285,4.025c-0.174,0-0.347,0.051-0.521,0.154
			c-0.174,0.103-0.314,0.283-0.422,0.54c-0.107,0.257-0.161,0.587-0.161,0.991c0,0.651,0.13,1.213,0.388,1.685
			c0.26,0.472,0.601,0.708,1.023,0.708c0.316,0,0.576-0.13,0.781-0.391c0.205-0.261,0.309-0.708,0.309-1.343
			c0-0.794-0.172-1.42-0.514-1.876C113.938,4.181,113.643,4.025,113.285,4.025z"/>
		<path fill="#040000" d="M117.554,4.655c0.524-0.632,1.024-0.948,1.499-0.948c0.244,0,0.455,0.061,0.631,0.183
			s0.315,0.323,0.42,0.603c0.071,0.196,0.107,0.495,0.107,0.899v1.91c0,0.284,0.022,0.476,0.068,0.577
			c0.035,0.081,0.094,0.145,0.174,0.19c0.079,0.045,0.227,0.068,0.441,0.068v0.176h-2.213V8.138h0.094
			c0.208,0,0.354-0.032,0.437-0.095s0.142-0.157,0.173-0.281c0.014-0.049,0.02-0.202,0.02-0.459V5.471
			c0-0.407-0.053-0.703-0.158-0.887c-0.105-0.184-0.284-0.276-0.535-0.276c-0.387,0-0.773,0.212-1.157,0.635v2.359
			c0,0.303,0.019,0.49,0.054,0.562c0.045,0.094,0.108,0.164,0.188,0.208c0.08,0.044,0.242,0.066,0.486,0.066v0.176h-2.213V8.138
			h0.098c0.229,0,0.383-0.058,0.462-0.173c0.08-0.116,0.12-0.336,0.12-0.662V5.642c0-0.537-0.012-0.864-0.037-0.981
			c-0.023-0.118-0.062-0.197-0.112-0.24c-0.05-0.042-0.118-0.063-0.202-0.063c-0.092,0-0.201,0.024-0.328,0.073l-0.072-0.176
			l1.348-0.547h0.21V4.655z"/>
		<path fill="#040000" d="M129.047,1.69l0.073,1.554h-0.186c-0.036-0.274-0.085-0.469-0.146-0.586
			c-0.101-0.189-0.235-0.328-0.403-0.417s-0.389-0.134-0.662-0.134h-0.933v5.06c0,0.407,0.044,0.661,0.132,0.762
			c0.124,0.137,0.314,0.205,0.572,0.205h0.229v0.181h-2.809V8.133h0.234c0.281,0,0.479-0.084,0.597-0.254
			c0.071-0.104,0.107-0.342,0.107-0.713v-5.06h-0.796c-0.31,0-0.529,0.023-0.66,0.068c-0.169,0.062-0.314,0.181-0.435,0.356
			s-0.192,0.414-0.215,0.713h-0.186l0.078-1.554H129.047z"/>
		<path fill="#040000" d="M129.735,5.524c-0.003,0.665,0.157,1.186,0.483,1.563c0.326,0.378,0.709,0.567,1.148,0.567
			c0.293,0,0.547-0.081,0.764-0.242s0.398-0.437,0.545-0.828l0.151,0.098c-0.068,0.446-0.267,0.852-0.597,1.219
			c-0.328,0.366-0.74,0.549-1.234,0.549c-0.538,0-0.998-0.209-1.381-0.627s-0.574-0.981-0.574-1.688c0-0.766,0.197-1.362,0.59-1.791
			c0.392-0.428,0.885-0.642,1.477-0.642c0.502,0,0.914,0.165,1.236,0.496s0.483,0.772,0.483,1.326H129.735z M129.735,5.241h2.071
			c-0.017-0.287-0.051-0.488-0.104-0.606c-0.081-0.182-0.202-0.325-0.363-0.43c-0.161-0.104-0.33-0.156-0.506-0.156
			c-0.27,0-0.512,0.105-0.725,0.315C129.896,4.574,129.771,4.867,129.735,5.241z"/>
		<path fill="#040000" d="M137.223,6.614c-0.12,0.589-0.355,1.043-0.708,1.36c-0.352,0.317-0.741,0.476-1.167,0.476
			c-0.508,0-0.951-0.213-1.328-0.64c-0.379-0.427-0.567-1.003-0.567-1.729c0-0.703,0.21-1.274,0.628-1.714
			c0.418-0.439,0.92-0.659,1.507-0.659c0.439,0,0.801,0.116,1.084,0.349c0.284,0.233,0.425,0.475,0.425,0.726
			c0,0.124-0.039,0.224-0.119,0.3s-0.191,0.115-0.335,0.115c-0.192,0-0.337-0.062-0.435-0.186c-0.055-0.068-0.092-0.199-0.109-0.391
			c-0.019-0.192-0.084-0.338-0.198-0.439c-0.114-0.098-0.272-0.146-0.474-0.146c-0.326,0-0.588,0.121-0.787,0.361
			c-0.264,0.319-0.395,0.741-0.395,1.265c0,0.534,0.131,1.005,0.393,1.414s0.616,0.613,1.063,0.613c0.318,0,0.605-0.109,0.859-0.328
			c0.18-0.149,0.354-0.421,0.523-0.815L137.223,6.614z"/>
		<path fill="#040000" d="M139.177,1.368v3.273c0.361-0.397,0.647-0.652,0.86-0.765c0.211-0.112,0.423-0.168,0.635-0.168
			c0.254,0,0.472,0.07,0.654,0.21c0.182,0.14,0.317,0.36,0.405,0.659c0.062,0.208,0.093,0.59,0.093,1.143v1.583
			c0,0.284,0.022,0.477,0.068,0.582c0.033,0.078,0.088,0.14,0.166,0.186s0.221,0.068,0.43,0.068v0.176h-2.197V8.138h0.102
			c0.209,0,0.354-0.032,0.436-0.095c0.081-0.063,0.139-0.157,0.17-0.281c0.01-0.052,0.016-0.206,0.016-0.459V5.72
			c0-0.488-0.025-0.809-0.076-0.962c-0.051-0.153-0.131-0.268-0.242-0.345c-0.11-0.076-0.244-0.115-0.4-0.115
			c-0.159,0-0.325,0.042-0.498,0.127c-0.172,0.085-0.379,0.256-0.62,0.513v2.364c0,0.306,0.017,0.497,0.052,0.572
			c0.033,0.075,0.098,0.138,0.189,0.188c0.094,0.05,0.254,0.076,0.482,0.076v0.176h-2.219V8.138c0.199,0,0.355-0.031,0.469-0.093
			c0.066-0.033,0.117-0.095,0.157-0.186c0.039-0.091,0.059-0.277,0.059-0.557V3.253c0-0.511-0.013-0.826-0.036-0.943
			c-0.025-0.117-0.063-0.197-0.113-0.239s-0.117-0.063-0.203-0.063c-0.068,0-0.179,0.026-0.332,0.078l-0.068-0.171l1.339-0.547
			H139.177z"/>
	</g>
	<polygon fill="#115A94" points="57.081,12.732 57.081,12.732 52.791,12.732 52.791,25.452 44.794,12.685 40.503,12.685 
		40.503,32.626 40.845,32.626 44.794,32.626 45.135,32.626 45.135,20.418 52.984,32.675 57.276,32.675 57.276,12.732 	"/>
	<polygon fill="#115A94" points="119.441,12.732 119.441,12.732 115.152,12.732 115.152,25.452 107.154,12.685 102.863,12.685 
		102.863,32.626 103.205,32.626 107.154,32.626 107.496,32.626 107.496,20.418 115.346,32.675 119.637,32.675 119.637,12.732 	"/>
	<path fill="#115A94" d="M34.457,32.675h5.219l-8.045-20.04h-3.803l-8.143,20.088h5.51l0.932-2.976h7.38L34.457,32.675z
		 M27.289,26.044l2.294-7.313h0.34l2.38,7.313H27.289z"/>
	<g>
		<polygon fill="#D9810F" points="82.679,12.832 77.414,12.832 69.124,22.778 77.998,32.773 83.264,32.773 74.292,22.778 		"/>
		<polygon fill="#D9810F" points="75.998,12.732 69.708,12.732 69.708,20.096 		"/>
		<polygon fill="#D9810F" points="69.708,25.167 69.708,32.675 76.487,32.675 		"/>
	</g>
	<path fill="#115A94" d="M90.991,12.296c-5.91,0-10.701,4.67-10.701,10.433c0,5.762,4.791,10.432,10.701,10.432
		c5.911,0,10.705-4.67,10.705-10.432C101.695,16.966,96.902,12.296,90.991,12.296z M90.943,29.066c-3.219,0-5.826-2.837-5.826-6.337
		c0-3.501,2.607-6.338,5.826-6.338c3.217,0,5.826,2.837,5.826,6.338C96.769,26.229,94.16,29.066,90.943,29.066z"/>
	<path fill="#115A94" d="M130.656,21.381v3.882h6.484c-0.9,2.237-2.951,3.803-5.338,3.803c-3.219,0-5.828-2.837-5.828-6.337
		c0-3.501,2.609-6.338,5.828-6.338c2.004,0,3.766,1.103,4.814,2.778h5.283c-1.494-4.005-5.426-6.873-10.049-6.873
		c-5.912,0-10.705,4.67-10.705,10.433c0,5.762,4.793,10.432,10.705,10.432c5.91,0,10.701-4.67,10.701-10.432
		c0-0.447-0.039-0.884-0.094-1.316L130.656,21.381z"/>
	<g>
		<path fill="#D9810F" d="M179.049,6.517c-7.434,0-13.459,6.025-13.459,13.456c0,7.432,6.025,13.457,13.459,13.457
			c7.43,0,13.455-6.025,13.455-13.457C192.504,12.542,186.479,6.517,179.049,6.517z M185.264,18.657
			c-2.18,0-3.949-1.768-3.949-3.948c0-2.183,1.77-3.951,3.949-3.951c2.182,0,3.949,1.768,3.949,3.951
			C189.213,16.889,187.445,18.657,185.264,18.657z"/>
		<path fill="#D9810F" d="M162.959,19.973c0-6.648,4.912-12.167,11.371-13.257c-0.76-0.128-1.543-0.199-2.34-0.199
			c-7.574,0-13.713,6.025-13.713,13.456c0,7.432,6.139,13.457,13.713,13.457c0.797,0,1.58-0.07,2.34-0.199
			C167.871,32.141,162.959,26.624,162.959,19.973z"/>
		<path fill="#D9810F" d="M155.498,19.973c0-6.648,4.914-12.167,11.373-13.257c-0.762-0.128-1.543-0.199-2.342-0.199
			c-7.574,0-13.713,6.025-13.713,13.456c0,7.432,6.139,13.457,13.713,13.457c0.799,0,1.58-0.07,2.342-0.199
			C160.412,32.141,155.498,26.624,155.498,19.973z"/>
		<path fill="#D9810F" d="M148.037,19.973c0-6.648,4.916-12.167,11.373-13.257c-0.76-0.128-1.543-0.199-2.34-0.199
			c-7.574,0-13.715,6.025-13.715,13.456c0,7.432,6.141,13.457,13.715,13.457c0.797,0,1.58-0.07,2.34-0.199
			C152.953,32.141,148.037,26.624,148.037,19.973z"/>
	</g>
</g>
</svg>
